<!-- WhatsApp logo oficial, extraído del Brand Resource Center -->
<svg width="32" height="32" viewBox="0 0 32 32" fill="none" xmlns="http://www.w3.org/2000/svg">
  <g>
    <circle cx="16" cy="16" r="16" fill="#25D366"/>
    <path d="M22.1 9.9C20.2 8 17.3 8 15.4 9.9C13.5 11.8 13.5 14.7 15.4 16.6C17.3 18.5 20.2 18.5 22.1 16.6C24 14.7 24 11.8 22.1 9.9ZM16 24C12.1 24 8.9 20.8 8.9 16.9C8.9 13 12.1 9.8 16 9.8C19.9 9.8 23.1 13 23.1 16.9C23.1 20.8 19.9 24 16 24ZM16 10.8C12.7 10.8 10 13.5 10 16.8C10 20.1 12.7 22.8 16 22.8C19.3 22.8 22 20.1 22 16.8C22 13.5 19.3 10.8 16 10.8Z" fill="#fff"/>
    <path d="M20.2 13.8C19.9 13.5 19.5 13.5 19.2 13.8L18.2 14.8C18 15 17.7 15 17.5 14.8L16.5 13.8C16.2 13.5 15.8 13.5 15.5 13.8L14.5 14.8C14.3 15 14 15 13.8 14.8L12.8 13.8C12.5 13.5 12.1 13.5 11.8 13.8C11.5 14.1 11.5 14.5 11.8 14.8L12.8 15.8C13 16 13.3 16 13.5 15.8L14.5 14.8C14.7 14.6 15 14.6 15.2 14.8L16.2 15.8C16.4 16 16.7 16 16.9 15.8L17.9 14.8C18.1 14.6 18.4 14.6 18.6 14.8L19.6 15.8C19.8 16 20.1 16 20.3 15.8L21.3 14.8C21.6 14.5 21.6 14.1 21.3 13.8C21 13.5 20.6 13.5 20.2 13.8Z" fill="#fff"/>
  </g>
</svg>